# xmcd CD database file generated by Grip 2.95
# 
# Track frame offsets:
#       150
#       15032
#       41142
#       70442
#       81192
#       88937
#       231160
#       245007
#       257910
#       265735
#       276260
# 
# Disc length: 3870 seconds
# 
# Revision: 3
# Processed by: cddbd v1.4PL0 Copyright (c) Steve Scherf et al.
# Submitted via: Grip 2.95
# 
DISCID=970f1c0b
DTITLE=Mississippi John Hurt  - Mississippi John Hurt Memorial Anthology - Disk 2
DYEAR=1900
DGENRE=
TTITLE0=Lovin' Spoonful
TTITLE1=Richland Woman Blues
TTITLE2=Frankie and Albert
TTITLE3=Creole Belle
TTITLE4=Chicken
TTITLE5=Pete Seeger/ John Hurt Interview
TTITLE6=Let The Mermaids Flirt With Me
TTITLE7=Nobody's Dirty Buisness
TTITLE8=Stop Time (Buck Dance)
TTITLE9=Woried Blues
TTITLE10=Avalon Blues
EXTD=
EXTT0=
EXTT1=
EXTT2=
EXTT3=
EXTT4=
EXTT5=
EXTT6=
EXTT7=
EXTT8=
EXTT9=
EXTT10=
PLAYORDER=
